<?xml version="1.0" encoding="utf-8"?><svg xml:space="preserve" viewBox="0 0 100 100" y="0" x="0" xmlns="http://www.w3.org/2000/svg" id="圖層_1" version="1.1" width="40px" height="40px" xmlns:xlink="http://www.w3.org/1999/xlink" style="width:100%;height:100%;background-size:initial;background-repeat-y:initial;background-repeat-x:initial;background-position-y:initial;background-position-x:initial;background-origin:initial;background-image:initial;background-color:rgb(255, 255, 255);background-clip:initial;background-attachment:initial;animation-play-state:paused" ><g class="ldl-scale" style="transform-origin:50% 50%;transform:rotate(0deg) scale(1, 1);animation-play-state:paused" ><path stroke-miterlimit="10" stroke-width="8" stroke="#333" fill="none" d="M76.5 90h-53C16 90 10 84 10 76.5v-53C10 16 16 10 23.5 10h53C84 10 90 16 90 23.5v53C90 84 84 90 76.5 90z" style="stroke:rgb(51, 51, 51);animation-play-state:paused" ></path>
<path fill="#abbd81" d="M70.8 45.8H54.2V29.2c0-2.3-1.9-4.2-4.2-4.2s-4.2 1.9-4.2 4.2v16.5H29.2c-2.3 0-4.2 1.9-4.2 4.2s1.9 4.2 4.2 4.2h16.5v16.5c0 2.3 1.9 4.2 4.2 4.2s4.2-1.9 4.2-4.2V54.2h16.5c2.3 0 4.2-1.9 4.2-4.2s-1.7-4.2-4-4.2z" style="fill:rgb(171, 189, 129);animation-play-state:paused" ></path>
<metadata xmlns:d="https://loading.io/stock/" style="animation-play-state:paused" ><d:name style="animation-play-state:paused" >add</d:name>
<d:tags style="animation-play-state:paused" >add,plus,cross,new,create,upload,insert,append,square,form</d:tags>
<d:license style="animation-play-state:paused" >by</d:license>
<d:slug style="animation-play-state:paused" >x00dah</d:slug></metadata></g><!-- generated by https://loading.io/ --></svg>