<?xml version="1.0" encoding="utf-8"?><svg xml:space="preserve" viewBox="0 0 100 100" y="0" x="0" xmlns="http://www.w3.org/2000/svg" id="圖層_1" version="1.1" width="30px" height="30px" xmlns:xlink="http://www.w3.org/1999/xlink" style="width:100%;height:100%;background-size:initial;background-repeat-y:initial;background-repeat-x:initial;background-position-y:initial;background-position-x:initial;background-origin:initial;background-image:initial;background-color:rgb(255, 255, 255);background-clip:initial;background-attachment:initial;animation-play-state:paused" ><g class="ldl-scale" style="transform-origin:50% 50%;transform:rotate(0deg) scale(0.8, 0.8);animation-play-state:paused" ><path fill="#f8b26a" d="M46.9 13.7l-9.7 19.6c-.5 1-1.5 1.7-2.6 1.9L13 38.4c-2.8.4-4 3.9-1.9 5.9l15.6 15.3c.8.8 1.2 1.9 1 3.1L24 84.1c-.5 2.8 2.5 5 5 3.7l19.3-10.2c.5-.3 1.1-.4 1.6-.4V11.8c-1.1 0-2.4.6-3 1.9z" style="fill:rgb(248, 178, 106);animation-play-state:paused" ></path>
<path fill="#ffdc6c" d="M71 87.8c2.5 1.3 5.5-.8 5-3.7l-3.7-21.5c-.2-1.1.2-2.3 1-3.1l15.6-15.3c2.1-2 .9-5.5-1.9-5.9l-21.6-3.1c-1.1-.2-2.1-.9-2.6-1.9l-9.7-19.6c-.6-1.3-1.9-1.9-3.1-1.9v65.5c.6 0 1.1.1 1.6.4L71 87.8z" style="fill:rgb(255, 220, 108);animation-play-state:paused" ></path>
<metadata xmlns:d="https://loading.io/stock/" style="animation-play-state:paused" ><d:name style="animation-play-state:paused" >half star</d:name>


<d:tags style="animation-play-state:paused" >twinkling,planet,favorite,like,bookmark,score,rank,half star,web application</d:tags>


<d:license style="animation-play-state:paused" >by</d:license>


<d:slug style="animation-play-state:paused" >wbvvld</d:slug></metadata></g><!-- generated by https://loading.io/ --></svg>