<?xml version="1.0" encoding="utf-8"?><svg xml:space="preserve" viewBox="0 0 128 128" y="0px" x="0px" xmlns:xlink="http://www.w3.org/1999/xlink" xmlns="http://www.w3.org/2000/svg" id="圖層_1" version="1.1" width="40px" height="40px" style="width:100%;height:100%;background-size:initial;background-repeat-y:initial;background-repeat-x:initial;background-position-y:initial;background-position-x:initial;background-origin:initial;background-image:initial;background-color:rgb(255, 255, 255);background-clip:initial;background-attachment:initial;animation-play-state:paused" ><g class="ldl-scale" style="transform-origin:50% 50%;transform:rotate(0deg) scale(0.8, 0.8);animation-play-state:paused" ><path d="z" fill="none" style="animation-play-state:paused" ></path>
<path d="M108.8,52.22l-26.37-3.84c-2.2-0.27-4.1-1.68-4.99-3.71L65.66,20.74c-0.38-0.9-1.28-1.02-1.66-1.02v75.01 c1.02,0,2.18,0.26,3.07,0.77l23.55,12.42c0.9,0.51,1.66,0,1.92-0.13c0.26-0.26,0.9-0.77,0.77-1.79l-4.48-26.24 c-0.38-2.18,0.38-4.35,1.92-5.89l19.07-18.56c0.77-0.64,0.51-1.54,0.51-1.79C110.08,53.12,109.82,52.35,108.8,52.22z" fill="#FFFFFF" style="fill:rgb(255, 255, 255);animation-play-state:paused" ></path>
<path d="M109.44,47.36l-26.37-3.84c-0.64-0.13-1.15-0.51-1.41-1.02L69.89,18.56c-1.15-2.3-3.46-3.71-6.02-3.71 c-2.56,0-4.86,1.41-6.02,3.71L46.08,42.5c-0.26,0.51-0.77,0.9-1.41,1.02L18.3,47.36c-2.56,0.38-4.61,2.05-5.38,4.48 c-0.77,2.43-0.13,4.99,1.66,6.78l19.07,18.56c0.38,0.38,0.64,1.02,0.51,1.54l-4.48,26.24c-0.38,2.56,0.64,4.99,2.69,6.53 c1.15,0.9,2.56,1.28,3.97,1.28c1.02,0,2.18-0.26,3.07-0.77L63.1,99.84c0.26-0.13,0.51-0.26,0.9-0.26c0.26,0,0.64,0.13,0.9,0.26 l23.55,12.42c1.02,0.51,2.05,0.77,3.07,0.77c1.41,0,2.69-0.38,3.97-1.28c2.05-1.54,3.07-3.97,2.69-6.53L93.7,78.98 c-0.13-0.64,0.13-1.15,0.51-1.54l19.07-18.56c1.79-1.79,2.43-4.35,1.66-6.78C114.05,49.54,112,47.74,109.44,47.36z M109.82,55.3 L90.75,73.86c-1.54,1.54-2.3,3.71-1.92,5.89l4.48,26.24c0.13,1.02-0.38,1.54-0.77,1.79c-0.26,0.26-1.02,0.64-1.92,0.13L67.07,95.49 c-0.9-0.51-2.05-0.77-3.07-0.77V19.84c0.38,0,1.15,0.13,1.66,1.02L77.44,44.8c1.02,1.92,2.82,3.33,4.99,3.71l26.37,3.84 c1.02,0.13,1.41,0.9,1.41,1.28C110.34,53.76,110.46,54.53,109.82,55.3z" fill="#F8B26A" style="fill:rgb(248, 178, 106);animation-play-state:paused" ></path>
<path d="z" fill="none" style="animation-play-state:paused" ></path>
<metadata xmlns:d="https://loading.io/stock/" style="animation-play-state:paused" ><d:name style="animation-play-state:paused" >half star</d:name>


<d:tags style="animation-play-state:paused" >twinkling,planet,favorite,like,bookmark,score,rank,half star,web application</d:tags>


<d:license style="animation-play-state:paused" >by</d:license>


<d:slug style="animation-play-state:paused" >wy96uw</d:slug></metadata></g><!-- generated by https://loading.io/ --></svg>